<svg width="346" height="352" viewBox="0 0 346 352" fill="none" xmlns="http://www.w3.org/2000/svg">
<path d="M24.6776 87.366L173 1.73205L321.322 87.366V258.634L173 344.268L24.6776 258.634V87.366Z" stroke="#C43125" stroke-width="3"/>
<path d="M104.915 88C91.8936 83.1515 85.383 74.0606 85.383 60.7273C85.383 45.697 94.1844 29.4545 111.787 12L122.638 19.6364L123 22.1818C112.872 33.0909 107.809 43.2727 107.809 52.7273C107.809 62.4243 112.511 69.0909 121.915 72.7273V75.6364C117.333 80 111.667 84.1212 104.915 88ZM57.5319 88C44.5106 83.1515 38 74.0606 38 60.7273C38 45.697 46.8014 29.4545 64.4043 12L75.2553 19.6364L75.617 22.1818C65.4894 33.0909 60.4255 43.2727 60.4255 52.7273C60.4255 62.4243 65.1277 69.0909 74.5319 72.7273V75.6364C69.9504 80 64.2837 84.1212 57.5319 88Z" fill="url(#paint0_linear_63_95)"/>
<path d="M226.085 276C239.106 280.848 245.617 289.939 245.617 303.273C245.617 318.303 236.816 334.545 219.213 352L208.362 344.364L208 341.818C218.128 330.909 223.191 320.727 223.191 311.273C223.191 301.576 218.489 294.909 209.085 291.273L209.085 288.364C213.667 284 219.333 279.879 226.085 276ZM273.468 276C286.489 280.848 293 289.939 293 303.273C293 318.303 284.199 334.545 266.596 352L255.745 344.364L255.383 341.818C265.511 330.909 270.574 320.727 270.574 311.273C270.574 301.576 265.872 294.909 256.468 291.273L256.468 288.364C261.05 284 266.716 279.879 273.468 276Z" fill="url(#paint1_linear_63_95)"/>
<path d="M163.2 255.192L163.04 264.376L163.168 271H160.608L160.768 264.696L160.736 257.848L156.608 259L156.352 258.872V256.856L162.816 254.936L163.2 255.192ZM176.216 249.592L169.656 274.616H167.896L167.704 274.36L174.264 249.304H176.024L176.216 249.592ZM182.3 254.904C183.75 254.904 184.924 255.288 185.82 256.056C186.716 256.803 187.164 257.773 187.164 258.968C187.164 259.885 186.886 260.771 186.332 261.624C185.798 262.477 185.009 263.171 183.964 263.704V263.832C185.244 264.131 186.214 264.643 186.876 265.368C187.537 266.093 187.868 267 187.868 268.088C187.868 269.261 187.558 270.307 186.94 271.224C186.342 272.141 185.489 272.845 184.38 273.336C183.27 273.848 182.001 274.104 180.572 274.104C179.59 274.104 178.545 274.008 177.436 273.816L177.276 271.64L177.468 271.48C178.47 271.907 179.558 272.12 180.732 272.12C182.14 272.12 183.281 271.779 184.156 271.096C185.03 270.435 185.468 269.539 185.468 268.408C185.468 267.405 185.105 266.616 184.38 266.04C183.676 265.464 182.662 265.155 181.34 265.112H179.452L179.292 264.92L179.356 263.16L180.764 263.128C181.34 263.128 181.926 262.968 182.524 262.648C183.121 262.328 183.612 261.891 183.996 261.336C184.401 260.781 184.604 260.173 184.604 259.512C184.604 258.744 184.348 258.136 183.836 257.688C183.324 257.24 182.652 257.016 181.82 257.016C181.158 257.016 180.508 257.176 179.868 257.496C179.249 257.795 178.577 258.264 177.852 258.904H177.564L177.18 256.888C178.78 255.565 180.486 254.904 182.3 254.904Z" fill="#363636"/>
<defs>
<linearGradient id="paint0_linear_63_95" x1="123" y1="12" x2="38" y2="12" gradientUnits="userSpaceOnUse">
<stop stop-color="#E2483C"/>
<stop offset="1" stop-color="#500021"/>
</linearGradient>
<linearGradient id="paint1_linear_63_95" x1="208" y1="352" x2="293" y2="352" gradientUnits="userSpaceOnUse">
<stop stop-color="#E2483C"/>
<stop offset="1" stop-color="#500021"/>
</linearGradient>
</defs>
</svg>
